<svg width="27" height="25" viewBox="0 0 27 25" fill="none" xmlns="http://www.w3.org/2000/svg">
<path d="M5.63434 22.185C5.64221 21.752 5.77653 21.3309 6.02038 20.9748C6.26424 20.6186 6.60677 20.3431 7.00504 20.1828C7.40332 20.0226 7.8396 19.9848 8.25907 20.0741C8.67854 20.1635 9.06254 20.376 9.3629 20.685C9.66327 20.994 9.86661 21.3857 9.94739 21.811C10.0282 22.2363 9.98276 22.6763 9.81694 23.0756C9.65112 23.475 9.37226 23.8161 9.01531 24.0559C8.65835 24.2957 8.23921 24.4237 7.81052 24.4237C7.52211 24.4211 7.23705 24.3611 6.9716 24.2472C6.70614 24.1333 6.46551 23.9676 6.26343 23.7597C6.06135 23.5518 5.90179 23.3057 5.79385 23.0355C5.68591 22.7653 5.63171 22.4763 5.63434 22.185ZM21.4127 24.4237C20.9801 24.4303 20.555 24.3087 20.19 24.074C19.825 23.8393 19.5361 23.5017 19.3589 23.103C19.1817 22.7042 19.1239 22.2618 19.1927 21.8303C19.2615 21.3988 19.4539 20.9971 19.7462 20.6748C20.0384 20.3524 20.4177 20.1236 20.8371 20.0165C21.2566 19.9095 21.698 19.929 22.1066 20.0724C22.5153 20.2159 22.8735 20.4771 23.1369 20.8238C23.4003 21.1706 23.5574 21.5877 23.5888 22.0236C23.6312 22.6155 23.4415 23.2004 23.0608 23.6523C22.8762 23.8745 22.6496 24.0574 22.3942 24.1901C22.1387 24.3227 21.8597 24.4025 21.5734 24.4247L21.4127 24.4237ZM8.72395 17.4855C8.51198 17.4851 8.30606 17.414 8.13819 17.2833C7.97032 17.1525 7.8499 16.9694 7.79559 16.7624L3.87547 2.19527H1.12231C0.863249 2.19527 0.614748 2.09128 0.431566 1.90622C0.248383 1.72116 0.145508 1.47018 0.145508 1.20847C0.145508 0.946764 0.248383 0.695782 0.431566 0.510726C0.614748 0.325669 0.863249 0.22168 1.12231 0.22168H4.59521C4.80714 0.222254 5.01296 0.293463 5.18079 0.424184C5.34863 0.554905 5.46911 0.737883 5.52358 0.944787L9.4437 15.5119H20.1289L23.6807 7.12665H11.8435C11.5844 7.12665 11.336 7.02266 11.1528 6.83761C10.9696 6.65255 10.8667 6.40157 10.8667 6.13986C10.8667 5.87815 10.9696 5.62717 11.1528 5.44211C11.336 5.25705 11.5844 5.15306 11.8435 5.15306H25.1551C25.3144 5.15352 25.4711 5.19451 25.6107 5.27223C25.7502 5.34995 25.8682 5.46195 25.9537 5.59784C26.0414 5.73569 26.0944 5.89303 26.1083 6.05627C26.1223 6.21951 26.0965 6.38368 26.0335 6.53465L21.6502 16.8935C21.5768 17.0684 21.4543 17.2177 21.2978 17.3229C21.1413 17.4281 20.9578 17.4846 20.7698 17.4855H8.72395Z" fill="#EF5B70"/>
</svg>
